<svg width="41" height="41" viewBox="0 0 41 41" fill="none" xmlns="http://www.w3.org/2000/svg">
<path d="M20.5 26.5057C20.095 26.5057 19.7004 26.4564 19.2988 26.4402V28.908H21.7012V26.442C21.2997 26.4583 20.9047 26.5057 20.5 26.5057Z" fill="#1C4F88"/>
<path d="M33.7929 23.2458V26.5063H31.3906V24.3828C29.0762 25.3223 26.5878 25.9559 24.1035 26.2639V30.1099C24.1035 30.7738 23.5662 31.311 22.9023 31.311H18.0976C17.4337 31.311 16.8965 30.7738 16.8965 30.1099V26.2676C14.4103 25.96 11.9221 25.3262 9.60936 24.3864V26.5063H7.20702V23.2473C4.50735 21.8351 2.06817 20.0112 0 17.8381V41.0005C13.6667 41.0005 27.3333 41.0009 41 41.0004L40.9999 17.7963C38.9318 19.9769 36.5121 21.8243 33.7929 23.2458ZM9.60936 38.5981H7.20702V33.7134H9.60936V38.5981ZM9.60936 31.311H7.20702V28.9087H9.60936V31.311ZM33.7929 38.5981H31.3906V33.7134H33.7929V38.5981ZM33.7929 31.311H31.3906V28.9087H33.7929V31.311Z" fill="#1C4F88"/>
<path d="M26.5859 0H14.4141C11.7642 0 9.60938 2.15482 9.60938 4.80468V7.2871H14.4141V4.80468H26.5859V7.2871H31.3906V4.80468C31.3906 2.15482 29.2358 0 26.5859 0Z" fill="#1C4F88"/>
<path d="M37.3964 9.68945C17.2945 9.68945 27.381 9.68945 4.05395 9.68945C1.81817 9.68945 0 11.5076 0 13.7434V14.1153C1.94309 16.6742 4.39428 18.8374 7.20702 20.4935V12.0918H9.60936V21.762C16.3957 24.8324 24.5969 24.8537 31.3906 21.7777V12.0918H33.7929V20.4824C36.6169 18.8214 39.056 16.6585 40.9999 14.0916V13.293C40.9999 11.3059 39.3835 9.68945 37.3964 9.68945Z" fill="#1C4F88"/>
</svg>
