<svg width="42" height="41" viewBox="0 0 42 41" fill="none" xmlns="http://www.w3.org/2000/svg">
<rect x="6.10352e-05" y="38" width="41" height="3" fill="#1C4F88"/>
<path d="M7.29148 4.80762C4.64004 4.80762 2.48395 6.96371 2.48395 9.61515C2.48395 12.2666 4.64004 14.4227 7.29148 14.4227C9.94291 14.4227 12.099 12.2666 12.099 9.61515C12.099 6.96371 9.94291 4.80762 7.29148 4.80762Z" fill="#1C4F88"/>
<path d="M20.5122 0C17.1987 0 14.5027 2.69598 14.5027 6.00941C14.5027 9.32284 17.1987 12.0188 20.5122 12.0188C23.8256 12.0188 26.5216 9.32284 26.5216 6.00941C26.5216 2.69598 23.8256 0 20.5122 0Z" fill="#1C4F88"/>
<path d="M33.7329 4.80762C31.0815 4.80762 28.9254 6.96371 28.9254 9.61515C28.9254 12.2666 31.0815 14.4227 33.7329 14.4227C36.3843 14.4227 38.5404 12.2666 38.5404 9.61515C38.5404 6.96371 36.3843 4.80762 33.7329 4.80762Z" fill="#1C4F88"/>
<path fill-rule="evenodd" clip-rule="evenodd" d="M20.5122 14.4223C22.7957 14.4223 24.864 13.5008 26.3815 12.0186C27.9465 13.5473 28.9254 15.6729 28.9254 18.028V36.2393H12.0991V18.028C12.0991 15.6729 13.078 13.5473 14.643 12.0186C16.1604 13.5008 18.2288 14.4223 20.5122 14.4223ZM19.0001 15H22.0001V18H19.0001V15ZM19.0001 19H22.0001L23.0001 29L21.0001 33H20.0001L18.0001 29L19.0001 19Z" fill="#1C4F88"/>
<path d="M39.0685 14.4229C37.7476 15.8875 35.8558 16.8266 33.7328 16.8266C32.8263 16.8266 31.9668 16.6398 31.1669 16.3332C31.2621 16.8888 31.329 17.4518 31.329 18.0285V36.2398H41.0242V19.2304C41.0242 17.3768 40.2217 15.7016 39.0685 14.4229Z" fill="#1C4F88"/>
<path d="M9.69524 36.4417V18.0285C9.69524 17.4518 9.76215 16.8888 9.85734 16.3332C9.05744 16.6398 8.19786 16.8266 7.29148 16.8266C5.16855 16.8266 3.27663 15.8875 1.95576 14.4229C0.802598 15.7016 6.10352e-05 17.3768 6.10352e-05 19.2304V36.4417C2.13343 36.4417 9.69524 36.4417 9.69524 36.4417Z" fill="#1C4F88"/>
</svg>
