<svg width="13" height="16" viewBox="0 0 13 16" fill="none" xmlns="http://www.w3.org/2000/svg">
<path d="M8.90625 3.74988H11.9128L8.4375 0.274536V3.28113C8.4375 3.53975 8.64762 3.74988 8.90625 3.74988Z" fill="#1C4F88"/>
<path d="M1.40625 16H10.7812C11.5567 16 12.1875 15.3692 12.1875 14.5938V4.6875H8.90625C8.13081 4.6875 7.5 4.05669 7.5 3.28125V0H1.40625C0.630813 0 0 0.630813 0 1.40625V14.5938C0 15.3692 0.630813 16 1.40625 16ZM4.21875 7.53125H8.90625C9.16534 7.53125 9.375 7.74091 9.375 8C9.375 8.25909 9.16534 8.46875 8.90625 8.46875H4.21875C3.95966 8.46875 3.75 8.25909 3.75 8C3.75 7.74091 3.95966 7.53125 4.21875 7.53125ZM4.21875 9.40625H8.90625C9.16534 9.40625 9.375 9.61591 9.375 9.875C9.375 10.1341 9.16534 10.3438 8.90625 10.3438H4.21875C3.95966 10.3438 3.75 10.1341 3.75 9.875C3.75 9.61591 3.95966 9.40625 4.21875 9.40625ZM4.21875 11.2812H8.90625C9.16534 11.2812 9.375 11.4909 9.375 11.75C9.375 12.0091 9.16534 12.2188 8.90625 12.2188H4.21875C3.95966 12.2188 3.75 12.0091 3.75 11.75C3.75 11.4909 3.95966 11.2812 4.21875 11.2812ZM2.34375 7.53125C2.60262 7.53125 2.8125 7.74113 2.8125 8C2.8125 8.25887 2.60262 8.46875 2.34375 8.46875C2.08488 8.46875 1.875 8.25887 1.875 8C1.875 7.74113 2.08488 7.53125 2.34375 7.53125ZM2.34375 9.40625C2.60262 9.40625 2.8125 9.61613 2.8125 9.875C2.8125 10.1339 2.60262 10.3438 2.34375 10.3438C2.08488 10.3438 1.875 10.1339 1.875 9.875C1.875 9.61613 2.08488 9.40625 2.34375 9.40625ZM2.34375 11.2812C2.60262 11.2812 2.8125 11.4911 2.8125 11.75C2.8125 12.0089 2.60262 12.2188 2.34375 12.2188C2.08488 12.2188 1.875 12.0089 1.875 11.75C1.875 11.4911 2.08488 11.2812 2.34375 11.2812Z" fill="#1C4F88"/>
</svg>
