<svg width="52" height="51" viewBox="0 0 52 51" fill="none" xmlns="http://www.w3.org/2000/svg">
<path d="M50.8257 40.5533L45.1718 36.7837L40.1457 33.4335C39.1757 32.7882 37.8721 32.9998 37.1561 33.9189L34.046 37.9171C33.3779 38.7847 32.1761 39.034 31.2181 38.5036C29.1078 37.3297 26.6123 36.2245 21.1062 30.7113C15.6 25.198 14.4877 22.7096 13.3138 20.5993C12.7834 19.6413 13.0327 18.4395 13.9003 17.7715L17.8985 14.6615C18.8176 13.9455 19.0292 12.6419 18.3839 11.6718L15.1366 6.80046L11.2642 0.991703C10.6051 0.00299031 9.28564 -0.293843 8.26664 0.317255L3.8006 2.99652C2.59365 3.70762 1.70644 4.85591 1.32275 6.20331C0.101449 10.6561 -0.144783 20.4788 15.5973 36.2209C31.3394 51.963 41.1612 51.716 45.614 50.4946C46.9614 50.111 48.1097 49.2238 48.8208 48.0167L51.5001 43.5508C52.1113 42.5317 51.8144 41.2124 50.8257 40.5533Z" fill="#1C4F88"/>
<path d="M29.8354 7.91368C38.0872 7.92284 44.7744 14.6099 44.7835 22.8618C44.7835 23.3474 45.1772 23.7411 45.6629 23.7411C46.1485 23.7411 46.5422 23.3475 46.5422 22.8618C46.5321 13.6392 39.0582 6.16525 29.8355 6.15509C29.3499 6.15509 28.9562 6.54874 28.9562 7.03443C28.9561 7.51992 29.3497 7.91368 29.8354 7.91368Z" fill="#1C4F88"/>
<path d="M29.8337 13.1893C35.173 13.1956 39.4997 17.5224 39.506 22.8616C39.506 23.3471 39.8996 23.7409 40.3853 23.7409C40.8709 23.7409 41.2646 23.3472 41.2646 22.8616C41.2574 16.5515 36.1439 11.4379 29.8337 11.4306C29.3481 11.4306 28.9543 11.8243 28.9543 12.3099C28.9543 12.7956 29.348 13.1893 29.8337 13.1893Z" fill="#1C4F88"/>
<path d="M29.8336 18.4653C32.2605 18.4682 34.2272 20.4349 34.2301 22.8618C34.2301 23.3474 34.6238 23.7412 35.1094 23.7412C35.595 23.7412 35.9888 23.3475 35.9888 22.8618C35.9849 19.4641 33.2314 16.7106 29.8337 16.7067C29.3481 16.7067 28.9543 17.1004 28.9543 17.5861C28.9542 18.0717 29.3479 18.4653 29.8336 18.4653Z" fill="#1C4F88"/>
</svg>
