<svg width="41" height="41" viewBox="0 0 41 41" fill="none" xmlns="http://www.w3.org/2000/svg">
<path d="M20.5 7.28711C13.2144 7.28711 7.28711 13.2144 7.28711 20.5C7.28711 27.7856 13.2144 33.7129 20.5 33.7129C27.7856 33.7129 33.7129 27.7856 33.7129 20.5C33.7129 13.2144 27.7856 7.28711 20.5 7.28711ZM27.0408 26.3041L19.2988 21.1428V9.68945H21.7012V19.8572L28.3733 24.3053L27.0408 26.3041Z" fill="#1C4F88"/>
<path d="M20.5 0C9.24021 0 0 9.24021 0 20.5C0 31.7598 9.24021 41 20.5 41C31.7598 41 41 31.7598 41 20.5C41 9.24021 31.7598 0 20.5 0ZM20.5 36.1152C11.89 36.1152 4.88477 29.11 4.88477 20.5C4.88477 11.89 11.89 4.88477 20.5 4.88477C29.11 4.88477 36.1152 11.89 36.1152 20.5C36.1152 29.11 29.11 36.1152 20.5 36.1152Z" fill="#1C4F88"/>
</svg>
